<svg xmlns="http://www.w3.org/2000/svg" viewBox="0 0 1024 1024" width="200" height="200">
  <path fill="#d4237a" d="M775.850667 170.112a47.018667 47.018667 0 0 1 66.389333 1.109333 505.6 505.6 0 0 1 111.957333 179.626667c91.818667 252.16-27.306667 528.128-267.861333 615.68-58.197333 21.248-119.466667 29.696-180.565333 25.685333-18.432-1.194667-45.568-6.485333-82.944-15.616-6.058667-1.792-6.058667-1.792-11.861334-4.437333a54.613333 54.613333 0 0 1-23.722666-73.557333l47.530666-92.757334c11.861333-23.125333 40.106667-32.256 63.146667-20.394666 23.125333 11.776 32.256 40.106667 20.394667 63.146666l-23.722667 46.421334s-2.645333 0.768 0.085333 1.194666c7.253333 1.28 13.056 2.048 17.322667 2.304a347.818667 347.818667 0 0 0 142.250667-20.138666c190.634667-69.461333 286.208-290.901333 211.797333-495.445334a413.738667 413.738667 0 0 0-91.306667-146.432 47.018667 47.018667 0 0 1 1.109334-66.389333zM347.221333 56.874667a484.522667 484.522667 0 0 1 240.810667-32c20.394667 2.474667 57.173333 11.349333 113.066667 27.136 5.632 1.792 5.632 1.792 11.093333 4.437333a54.613333 54.613333 0 0 1 22.186667 74.154667l-54.784 101.461333a46.933333 46.933333 0 0 1-82.688-44.544l30.72-56.746667s-0.256-1.536-0.768-1.706666c-24.32-6.229333-41.301333-9.984-50.176-11.008a389.717333 389.717333 0 0 0-194.218667 25.856 392.96 392.96 0 0 0-217.173333 511.658666 391.04 391.04 0 0 0 113.92 155.818667 46.890667 46.890667 0 1 1-59.733334 72.362667 484.522667 484.522667 0 0 1-141.226666-193.024c-100.778667-249.344 19.712-533.162667 268.970666-633.856z m195.285334 215.850666l1.194666 0.085334H554.666667c10.922667 0 20.906667 5.76 26.453333 14.933333l2.048 4.138667 152.576 368.896a69.504 69.504 0 0 1-64.213333 96.085333L521.813333 381.525333l-153.6 385.194667a69.333333 69.333333 0 0 1-64.042666-95.786667l156.8-379.136a30.890667 30.890667 0 0 1 28.544-19.072h52.992z"/>
</svg>
